<?xml version="1.0" encoding="utf-8"?>
<!-- Generator: Adobe Illustrator 28.0.0, SVG Export Plug-In . SVG Version: 6.00 Build 0)  -->
<svg version="1.1" xmlns="http://www.w3.org/2000/svg" xmlns:xlink="http://www.w3.org/1999/xlink" x="0px" y="0px"
	 viewBox="0 0 256 256" style="enable-background:new 0 0 256 256;" xml:space="preserve">
<style type="text/css">
	.st0{fill:#2F80D3;}
	.st1{fill:#66D634;}
	.st2{fill:#C61919;}
	.st3{fill:#E9D81C;}
	.st4{display:none;}
	.st5{display:inline;}
	.st6{fill:none;}
	.st7{display:inline;fill:none;stroke:#000000;stroke-width:12;stroke-miterlimit:10;}
	.st8{display:inline;fill:#66D634;}
	.st9{display:inline;fill:#2F80D3;}
</style>
<g id="Layer_2">
	<g>
		<g>
			<path class="st0" d="M90.41,219.46h12.06v6.08c0,2.62-0.51,4.9-1.52,6.86c-1.01,1.95-2.43,3.47-4.25,4.55
				c-1.82,1.08-3.96,1.61-6.41,1.61c-2.47,0-4.63-0.51-6.48-1.52c-1.85-1.01-3.29-2.44-4.31-4.28c-1.02-1.84-1.53-3.99-1.53-6.45
				v-10.26c0-2.62,0.51-4.9,1.52-6.84c1.01-1.95,2.43-3.46,4.25-4.53c1.82-1.08,3.96-1.62,6.41-1.62c2.03,0,3.87,0.43,5.54,1.29
				c1.67,0.86,3.07,2.07,4.2,3.61c1.13,1.55,1.9,3.36,2.3,5.43H96.9c-0.45-1.8-1.32-3.18-2.61-4.14s-2.67-1.44-4.14-1.44
				c-2.17,0-3.91,0.75-5.22,2.26c-1.31,1.51-1.96,3.5-1.96,5.97v10.26c0,2.27,0.67,4.08,2.01,5.44c1.34,1.36,3.11,2.05,5.31,2.05
				c2.17,0,3.91-0.72,5.22-2.15c1.31-1.44,1.96-3.44,1.96-6.01v-1.51h-7.06V219.46z"/>
			<path class="st1" d="M119.41,238.56c-3.25,0-5.77-0.94-7.56-2.83c-1.79-1.89-2.68-4.55-2.68-7.98v-4.04c0-3.4,0.89-6.03,2.68-7.9
				c1.79-1.87,4.31-2.8,7.56-2.8s5.77,0.93,7.56,2.8c1.79,1.87,2.68,4.5,2.68,7.9v4.12c0,3.41-0.89,6.06-2.68,7.93
				C125.19,237.62,122.67,238.56,119.41,238.56z M119.41,233.92c1.71,0,3.03-0.53,3.96-1.6c0.93-1.07,1.4-2.57,1.4-4.5v-4.12
				c0-1.93-0.47-3.42-1.4-4.47c-0.93-1.05-2.25-1.58-3.96-1.58c-1.69,0-3.01,0.53-3.95,1.58c-0.94,1.05-1.41,2.54-1.41,4.47v4.12
				c0,1.93,0.47,3.43,1.41,4.5C116.4,233.38,117.72,233.92,119.41,233.92z"/>
			<path class="st2" d="M146.11,238.56c-3.25,0-5.77-0.94-7.56-2.83c-1.79-1.89-2.68-4.55-2.68-7.98v-4.04c0-3.4,0.89-6.03,2.68-7.9
				c1.79-1.87,4.31-2.8,7.56-2.8s5.78,0.93,7.56,2.8c1.79,1.87,2.68,4.5,2.68,7.9v4.12c0,3.41-0.89,6.06-2.68,7.93
				C151.89,237.62,149.37,238.56,146.11,238.56z M146.11,233.92c1.71,0,3.03-0.53,3.96-1.6c0.93-1.07,1.4-2.57,1.4-4.5v-4.12
				c0-1.93-0.47-3.42-1.4-4.47c-0.93-1.05-2.25-1.58-3.96-1.58c-1.69,0-3.01,0.53-3.95,1.58s-1.41,2.54-1.41,4.47v4.12
				c0,1.93,0.47,3.43,1.41,4.5S144.42,233.92,146.11,233.92z"/>
			<path class="st3" d="M163.77,238.2v-34.79h4.88v34.79H163.77z M167.07,238.2v-4.64h7.87c2.57,0,4.56-0.67,5.97-2
				c1.41-1.33,2.12-3.21,2.12-5.63v-10.24c0-2.42-0.71-4.3-2.12-5.63c-1.41-1.33-3.4-2-5.97-2h-7.87v-4.64h7.73
				c4.21,0,7.47,1.09,9.77,3.27c2.3,2.18,3.46,5.24,3.46,9.2v9.86c0,2.63-0.52,4.88-1.56,6.74c-1.04,1.86-2.54,3.28-4.52,4.26
				c-1.98,0.98-4.37,1.47-7.18,1.47H167.07z"/>
		</g>
	</g>
	<g>
		<path class="st1" d="M75.4,35.12c-0.19,0.06-0.39,0.11-0.58,0.17l-0.01-0.01c-13.95,4.5-23.66,17.97-22.77,33.28
			c1.05,18.18,16.64,32.06,34.82,31c8.16-0.47,15.45-3.88,20.91-9.13c3.29,2.2,7,3.82,10.95,4.72l0.01,0.01
			c0.05,0.01,0.11,0.02,0.16,0.03c0.04,0.01,0.08,0.02,0.12,0.03l-0.01-0.01c0.27,0.06,0.55,0.1,0.82,0.15L75.4,35.12z"/>
		<path class="st3" d="M170.71,32.81c-5.07-16.57-20.95-28.17-39.02-27.13c-6.14,0.36-11.85,2.15-16.85,5.02l64.19,87.04
			c15.09-3.75,25.87-17.79,24.94-33.88C202.93,46.21,188.2,32.62,170.71,32.81z"/>
		<path class="st2" d="M114.94,10.64c-0.17,0.09-0.34,0.18-0.5,0.28l0,0c-0.02,0.01-0.04,0.02-0.05,0.03
			c-0.02,0.01-0.04,0.02-0.05,0.03l0,0c-9.04,5.36-15.65,14.29-17.98,24.74c-4.13-1.53-8.63-2.25-13.31-1.98
			c-2.72,0.16-5.34,0.66-7.83,1.43l44.35,60.14c2.72,0.55,5.54,0.79,8.44,0.62c7.29-0.42,13.88-3.19,19.1-7.51
			c6.45,6.82,15.75,10.85,25.86,10.26c1.87-0.11,3.7-0.38,5.47-0.79l0,0c0.03-0.01,0.06-0.02,0.09-0.02c0.01,0,0.03-0.01,0.04-0.01
			l0,0c0.2-0.05,0.4-0.1,0.59-0.15L114.94,10.64z"/>
	</g>
	<g>
		<path class="st0" d="M69.44,105.33c-10.54,16.87-11.5,38.32-2.22,56.13l-1.41-0.62c-2.1-0.93-4.56,0.02-5.49,2.12l-1.27,2.87
			c-0.93,2.1,0.02,4.56,2.12,5.49l13.9,6.15l2.87,1.27c2.1,0.93,4.56-0.02,5.49-2.12l1.27-2.87l6.15-13.9
			c0.93-2.1-0.02-4.56-2.12-5.49l-2.87-1.27c-2.1-0.93-4.56,0.02-5.49,2.12l-0.44,0.99c-6.71-12.04-7.07-26.45-1.51-38.67
			L69.44,105.33z"/>
		<path class="st1" d="M76.48,101.61c-1.23-1.43-3.49-1.38-4.61,0.14c-0.88,1.19-1.7,2.41-2.47,3.65l8.99,12.19
			c0.99-2.18,2.14-4.3,3.51-6.32c0.74-1.1,0.66-2.55-0.2-3.56L76.48,101.61z"/>
	</g>
	<g>
		<path class="st2" d="M199.96,125.93l-16.95-22.98l-1.34,2.34l-7.54,13.2c-1.14,1.99-0.45,4.54,1.55,5.68l2.73,1.56
			c1.99,1.14,4.54,0.45,5.68-1.55l0.53-0.94c6.39,14.9,3.75,32.17-6.58,44.48c-0.85,1.01-0.92,2.47-0.16,3.56l4.57,6.6
			c1.07,1.55,3.33,1.73,4.6,0.34C199.96,164.02,204.69,144.24,199.96,125.93z"/>
		<path class="st3" d="M204.84,110.11l-13.2-7.54l-2.73-1.56c-1.99-1.14-4.54-0.45-5.68,1.55l-0.29,0.51l17.1,23.19
			c-0.59-2.35-1.33-4.67-2.24-6.95l1.34,0.77c1.99,1.14,4.54,0.45,5.68-1.55l1.56-2.73C207.52,113.79,206.83,111.25,204.84,110.11z"
			/>
	</g>
	<g>
		<path class="st0" d="M100.35,147.25l34,46.11"/>
		<path class="st0" d="M100.35,187.11c0,3.45,2.8,6.25,6.25,6.25h27.75l-34-46.11V187.11z M103.42,185.91
			c0.29-1.3,1.34-2.35,2.64-2.64c2.58-0.57,4.83,1.68,4.26,4.26c-0.29,1.3-1.34,2.35-2.64,2.64
			C105.1,190.74,102.85,188.49,103.42,185.91z"/>
	</g>
	<g>
		<path class="st1" d="M163.65,187.11c0,3.45-2.8,6.25-6.25,6.25"/>
		<circle class="st1" cx="132" cy="142.47" r="8.7"/>
		<path class="st1" d="M132,165.55c-2.91,0-5.69-0.54-8.25-1.52l1.86-3.23c1.16-2.02,0.47-4.59-1.54-5.76
			c-2.02-1.16-4.59-0.47-5.76,1.54l-1.75,3.04c-4.69-4.22-7.64-10.34-7.64-17.15c0-12.75,10.33-23.08,23.08-23.08
			c2.14,0,4.2,0.3,6.16,0.84l-7.64-10.36h-23.92c-3.45,0-6.25,2.8-6.25,6.25v31.25l33.91,45.99h23.13c3.45,0,6.25-2.8,6.25-6.25
			v-32.32l-8.58-11.64C154.71,155.58,144.52,165.55,132,165.55z M103.42,115.04c0.29-1.3,1.34-2.35,2.64-2.64
			c2.58-0.57,4.83,1.68,4.26,4.26c-0.29,1.3-1.34,2.35-2.64,2.64C105.1,119.87,102.85,117.62,103.42,115.04z M160.45,187.53
			c-0.29,1.3-1.34,2.35-2.64,2.64c-2.58,0.57-4.83-1.68-4.26-4.26c0.29-1.3,1.34-2.35,2.64-2.64
			C158.77,182.7,161.02,184.95,160.45,187.53z"/>
	</g>
	<g>
		<path class="st2" d="M157.4,109.87h-27.11l7.58,10.28c9.91,2.6,17.22,11.61,17.22,22.33c0,0.33-0.01,0.66-0.02,0.99l8.59,11.65
			v-38.99C163.65,112.67,160.85,109.87,157.4,109.87z M160.45,116.66c-0.29,1.3-1.34,2.35-2.64,2.64c-2.58,0.57-4.83-1.68-4.26-4.26
			c0.29-1.3,1.34-2.35,2.64-2.64C158.77,111.83,161.02,114.08,160.45,116.66z"/>
	</g>
</g>
<g id="Layer_3" class="st4">
	<g class="st5">
		<path class="st6" d="M106.06,183.27c-1.3,0.29-2.35,1.34-2.64,2.64c-0.57,2.58,1.68,4.83,4.26,4.26c1.3-0.29,2.35-1.34,2.64-2.64
			C110.89,184.95,108.64,182.7,106.06,183.27z"/>
		<path class="st6" d="M107.68,119.3c1.3-0.29,2.35-1.34,2.64-2.64c0.57-2.58-1.68-4.83-4.26-4.26c-1.3,0.29-2.35,1.34-2.64,2.64
			C102.85,117.62,105.1,119.87,107.68,119.3z"/>
		<path class="st6" d="M132,119.39c-12.75,0-23.08,10.33-23.08,23.08c0,6.81,2.95,12.93,7.64,17.15l1.75-3.04
			c1.16-2.02,3.74-2.71,5.76-1.54c2.02,1.16,2.71,3.74,1.54,5.76l-1.86,3.23c2.56,0.98,5.34,1.52,8.25,1.52
			c12.75,0,23.08-10.33,23.08-23.08C155.08,129.72,144.75,119.39,132,119.39z M132,151.17c-4.81,0-8.7-3.9-8.7-8.7
			c0-4.81,3.9-8.7,8.7-8.7c4.81,0,8.7,3.9,8.7,8.7C140.7,147.28,136.81,151.17,132,151.17z"/>
		<path class="st6" d="M156.19,183.27c-1.3,0.29-2.35,1.34-2.64,2.64c-0.57,2.58,1.68,4.83,4.26,4.26c1.3-0.29,2.35-1.34,2.64-2.64
			C161.02,184.95,158.77,182.7,156.19,183.27z"/>
		<path class="st6" d="M156.19,112.4c-1.3,0.29-2.35,1.34-2.64,2.64c-0.57,2.58,1.68,4.83,4.26,4.26c1.3-0.29,2.35-1.34,2.64-2.64
			C161.02,114.08,158.77,111.83,156.19,112.4z"/>
		<g>
			<path class="st6" d="M106.06,183.27c-1.3,0.29-2.35,1.34-2.64,2.64c-0.57,2.58,1.68,4.83,4.26,4.26c1.3-0.29,2.35-1.34,2.64-2.64
				C110.89,184.95,108.64,182.7,106.06,183.27z"/>
			<path class="st6" d="M132,119.39c-12.75,0-23.08,10.33-23.08,23.08c0,6.81,2.95,12.93,7.64,17.15l1.75-3.04
				c1.16-2.02,3.74-2.71,5.76-1.54c2.02,1.16,2.71,3.74,1.54,5.76l-1.86,3.23c2.56,0.98,5.34,1.52,8.25,1.52
				c12.75,0,23.08-10.33,23.08-23.08C155.08,129.72,144.75,119.39,132,119.39z M132,151.17c-4.81,0-8.7-3.9-8.7-8.7
				c0-4.81,3.9-8.7,8.7-8.7c4.81,0,8.7,3.9,8.7,8.7C140.7,147.28,136.81,151.17,132,151.17z"/>
			<path class="st6" d="M107.68,119.3c1.3-0.29,2.35-1.34,2.64-2.64c0.57-2.58-1.68-4.83-4.26-4.26c-1.3,0.29-2.35,1.34-2.64,2.64
				C102.85,117.62,105.1,119.87,107.68,119.3z"/>
			<path class="st6" d="M156.19,112.4c-1.3,0.29-2.35,1.34-2.64,2.64c-0.57,2.58,1.68,4.83,4.26,4.26c1.3-0.29,2.35-1.34,2.64-2.64
				C161.02,114.08,158.77,111.83,156.19,112.4z"/>
			<path class="st6" d="M156.19,183.27c-1.3,0.29-2.35,1.34-2.64,2.64c-0.57,2.58,1.68,4.83,4.26,4.26c1.3-0.29,2.35-1.34,2.64-2.64
				C161.02,184.95,158.77,182.7,156.19,183.27z"/>
			<circle class="st1" cx="132" cy="142.47" r="8.7"/>
			<path class="st1" d="M157.4,109.87h-50.79c-3.45,0-6.25,2.8-6.25,6.25v70.99c0,3.45,2.8,6.25,6.25,6.25h50.79
				c3.45,0,6.25-2.8,6.25-6.25v-70.99C163.65,112.67,160.85,109.87,157.4,109.87z M103.42,115.04c0.29-1.3,1.34-2.35,2.64-2.64
				c2.58-0.57,4.83,1.68,4.26,4.26c-0.29,1.3-1.34,2.35-2.64,2.64C105.1,119.87,102.85,117.62,103.42,115.04z M110.32,187.53
				c-0.29,1.3-1.34,2.35-2.64,2.64c-2.58,0.57-4.83-1.68-4.26-4.26c0.29-1.3,1.34-2.35,2.64-2.64
				C108.64,182.7,110.89,184.95,110.32,187.53z M132,165.55c-2.91,0-5.69-0.54-8.25-1.52l1.86-3.23c1.16-2.02,0.47-4.59-1.54-5.76
				c-2.02-1.16-4.59-0.47-5.76,1.54l-1.75,3.04c-4.69-4.22-7.64-10.34-7.64-17.15c0-12.75,10.33-23.08,23.08-23.08
				c12.75,0,23.08,10.33,23.08,23.08C155.08,155.22,144.75,165.55,132,165.55z M160.45,187.53c-0.29,1.3-1.34,2.35-2.64,2.64
				c-2.58,0.57-4.83-1.68-4.26-4.26c0.29-1.3,1.34-2.35,2.64-2.64C158.77,182.7,161.02,184.95,160.45,187.53z M160.45,116.66
				c-0.29,1.3-1.34,2.35-2.64,2.64c-2.58,0.57-4.83-1.68-4.26-4.26c0.29-1.3,1.34-2.35,2.64-2.64
				C158.77,111.83,161.02,114.08,160.45,116.66z"/>
		</g>
	</g>
	<path class="st7" d="M82.73,128.95"/>
	<path class="st7" d="M216.77,156.37"/>
	<path class="st8" d="M203.96,63.86c-1.02-17.65-15.76-31.25-33.25-31.05c-5.07-16.57-20.95-28.17-39.02-27.13
		c-6.3,0.37-12.15,2.24-17.24,5.23l0,0c-0.02,0.01-0.04,0.02-0.05,0.03c-0.02,0.01-0.04,0.02-0.05,0.03l0,0
		c-9.04,5.36-15.65,14.29-17.98,24.74c-4.13-1.53-8.63-2.25-13.31-1.98c-2.86,0.17-5.61,0.7-8.22,1.54l-0.01-0.01
		c-13.95,4.5-23.66,17.97-22.77,33.28c1.05,18.18,16.64,32.06,34.82,31c8.16-0.47,15.45-3.88,20.91-9.13c3.29,2.2,7,3.82,10.95,4.72
		l0.01,0.01c0.05,0.01,0.11,0.02,0.16,0.03c0.04,0.01,0.08,0.02,0.12,0.03l-0.01-0.01c2.88,0.63,5.9,0.9,8.99,0.72
		c7.29-0.42,13.88-3.19,19.1-7.51c6.45,6.82,15.75,10.85,25.86,10.26c1.87-0.11,3.7-0.38,5.47-0.79l0,0
		c0.03-0.01,0.06-0.02,0.09-0.02c0.01,0,0.03-0.01,0.04-0.01l0,0C193.89,94.3,204.9,80.12,203.96,63.86z"/>
	<path class="st9" d="M85.73,154.35l-2.87-1.27c-2.1-0.93-4.56,0.02-5.49,2.12l-0.44,0.99c-7.89-14.17-7.04-31.62,1.97-44.92
		c0.74-1.1,0.66-2.55-0.2-3.56l-5.22-6.1c-1.23-1.43-3.49-1.38-4.61,0.14c-12.79,17.33-14.6,40.61-4.65,59.71l-1.41-0.62
		c-2.1-0.93-4.56,0.02-5.49,2.12l-1.27,2.87c-0.93,2.1,0.02,4.56,2.12,5.49l13.9,6.15l2.87,1.27c2.1,0.93,4.56-0.02,5.49-2.12
		l1.27-2.87l6.15-13.9C88.79,157.74,87.84,155.28,85.73,154.35z"/>
	<path class="st9" d="M177.68,124.16l2.73,1.56c1.99,1.14,4.54,0.45,5.68-1.55l0.53-0.94c6.39,14.9,3.75,32.17-6.58,44.48
		c-0.85,1.01-0.92,2.47-0.16,3.56l4.57,6.6c1.07,1.55,3.33,1.73,4.6,0.34c14.5-15.92,18.7-38.9,10.77-58.92l1.34,0.77
		c1.99,1.14,4.54,0.45,5.68-1.55l1.56-2.73c1.14-1.99,0.45-4.54-1.55-5.68l-13.2-7.54l-2.73-1.56c-1.99-1.14-4.54-0.45-5.68,1.55
		l-1.56,2.73l-7.54,13.2C174.99,120.47,175.68,123.01,177.68,124.16z"/>
</g>
</svg>
